<mxfile host="app.diagrams.net" modified="2021-07-17T14:09:24.346Z" agent="5.0 (Windows NT 10.0; Win64; x64) AppleWebKit/537.36 (KHTML, like Gecko) Chrome/89.0.4389.114 Safari/537.36" etag="jg9kp6_M_VfJLC9XyjbE" version="14.7.6" type="github">
  <diagram id="udTa-_vOfRBhax3641lD" name="Page-1">
    <mxGraphModel dx="1038" dy="492" grid="0" gridSize="10" guides="1" tooltips="1" connect="1" arrows="1" fold="1" page="1" pageScale="1" pageWidth="827" pageHeight="1169" math="0" shadow="0">
      <root>
        <mxCell id="0" />
        <mxCell id="1" parent="0" />
        <mxCell id="U5e1MHtu9C-Un_sB0A3N-3" style="edgeStyle=orthogonalEdgeStyle;rounded=0;orthogonalLoop=1;jettySize=auto;html=1;exitX=1;exitY=0.5;exitDx=0;exitDy=0;" edge="1" parent="1" source="U5e1MHtu9C-Un_sB0A3N-1" target="U5e1MHtu9C-Un_sB0A3N-2">
          <mxGeometry relative="1" as="geometry" />
        </mxCell>
        <mxCell id="U5e1MHtu9C-Un_sB0A3N-1" value="" style="rounded=1;whiteSpace=wrap;html=1;strokeWidth=2;fillWeight=4;hachureGap=8;hachureAngle=45;fillColor=#1ba1e2;sketch=1;" vertex="1" parent="1">
          <mxGeometry x="130" y="160" width="120" height="60" as="geometry" />
        </mxCell>
        <mxCell id="U5e1MHtu9C-Un_sB0A3N-2" value="" style="rounded=1;whiteSpace=wrap;html=1;strokeWidth=2;fillWeight=4;hachureGap=8;hachureAngle=45;fillColor=#1ba1e2;sketch=1;" vertex="1" parent="1">
          <mxGeometry x="404" y="160" width="120" height="60" as="geometry" />
        </mxCell>
      </root>
    </mxGraphModel>
  </diagram>
</mxfile>
